<?xml version="1.0" encoding="iso-8859-1"?>
<!-- Generator: Adobe Illustrator 18.1.1, SVG Export Plug-In . SVG Version: 6.00 Build 0)  -->
<svg xmlns="http://www.w3.org/2000/svg" xmlns:xlink="http://www.w3.org/1999/xlink" version="1.1" id="Capa_1" x="0px" y="0px" viewBox="0 0 346.58 346.58" style="enable-background:new 0 0 346.58 346.58;" xml:space="preserve" width="50px" height="50px">
<g>
	<g>
		<path d="M346.58,0.003H0v346.574h346.574v-17.829c-16.433,2.375-38.468,3.902-68.112,3.902    c-116.026,0-116.026-23.301-116.026-29.852c0-3.819,17.728-5.167,45.151-5.639c-11.474-9.386-20.037-21.212-26.415-34.488    c-52.067-1.384-72.718-23.897-72.718-51.554c0-24.1,15.699-44.286,54.173-50.008c-0.185-8.992-0.191-17.62-0.191-25.586h184.138    V0.003H346.58z M220.78,110.187c-6.194-20.884-33.629-21.242-51.148-26.326c-18.814-5.466-29.584-18.503-26.994-38.51    c1.122-8.664,14.881-8.771,13.748,0c-3.127,24.196,19.136,25.962,37.609,30.312c17.99,4.242,34.435,11.946,40.044,30.867    C236.563,115.056,223.292,118.666,220.78,110.187z M259.487,104.924c-4.618-41.798-96.884-20.89-77.659-75.147    c2.942-8.294,16.224-4.726,13.258,3.652c-8.431,23.79,23.611,26.684,39.918,32.138c19.595,6.552,35.813,17.501,38.224,39.352    C274.202,113.732,260.448,113.636,259.487,104.924z" fill="#3b2912"/>
		<path d="M138.306,211.666c0.269,14.78,8.085,24.768,34.214,28.158c-5.215-17.936-7.739-37.162-8.944-55.748    C144.345,188.854,138.073,198.813,138.306,211.666z" fill="#3b2912"/>
	</g>
</g>
<g>
</g>
<g>
</g>
<g>
</g>
<g>
</g>
<g>
</g>
<g>
</g>
<g>
</g>
<g>
</g>
<g>
</g>
<g>
</g>
<g>
</g>
<g>
</g>
<g>
</g>
<g>
</g>
<g>
</g>
</svg>
